<svg xmlns="http://www.w3.org/2000/svg" width="100.829" height="104.779" viewBox="0 0 100.829 104.779">
  <g id="setting-gears" transform="translate(-6.858)">
    <path id="Path_5" data-name="Path 5" d="M72.942,158.248a3.587,3.587,0,0,0-.361-2.739L65.068,142.5a3.606,3.606,0,0,0-4.929-1.321l-3.916,2.261a27.557,27.557,0,0,0-5.138-2.976v-4.512a3.613,3.613,0,0,0-3.609-3.609H32.448a3.612,3.612,0,0,0-3.608,3.609v4.512a27.561,27.561,0,0,0-5.138,2.977l-3.916-2.261a3.607,3.607,0,0,0-4.929,1.321L7.343,155.509a3.608,3.608,0,0,0,1.32,4.93l3.906,2.255a27.516,27.516,0,0,0,0,5.945l-3.906,2.255a3.608,3.608,0,0,0-1.32,4.929l7.513,13.014a3.607,3.607,0,0,0,4.929,1.321L23.7,187.9a27.575,27.575,0,0,0,5.138,2.976v4.512a3.61,3.61,0,0,0,3.608,3.609H47.475a3.613,3.613,0,0,0,3.609-3.609v-4.512a27.555,27.555,0,0,0,5.137-2.976l3.917,2.261a3.607,3.607,0,0,0,4.929-1.321l7.513-13.014a3.609,3.609,0,0,0-1.32-4.929l-3.906-2.255a27.566,27.566,0,0,0,0-5.945l3.906-2.255A3.576,3.576,0,0,0,72.942,158.248Zm-32.98,23.089a15.671,15.671,0,1,1,15.671-15.671A15.67,15.67,0,0,1,39.962,181.337Z" transform="translate(0 -94.214)" fill="#6e00ff"/>
    <path id="Path_6" data-name="Path 6" d="M167.309,26.963a2.373,2.373,0,0,0,.239,1.812l4.971,8.611a2.388,2.388,0,0,0,3.263.874l2.593-1.5a18.215,18.215,0,0,0,3.4,1.967v2.989a2.388,2.388,0,0,0,2.388,2.388H194.1a2.391,2.391,0,0,0,2.388-2.388V38.73a18.239,18.239,0,0,0,3.4-1.967l2.594,1.5a2.387,2.387,0,0,0,3.262-.874l4.971-8.611a2.387,2.387,0,0,0-.873-3.262l-2.586-1.493a18.042,18.042,0,0,0,0-3.932l2.586-1.493a2.388,2.388,0,0,0,.873-3.262l-4.971-8.611a2.386,2.386,0,0,0-3.262-.874l-2.594,1.5a18.212,18.212,0,0,0-3.4-1.967V2.388A2.391,2.391,0,0,0,194.1,0h-9.944a2.391,2.391,0,0,0-2.388,2.388v2.99a18.245,18.245,0,0,0-3.4,1.967l-2.594-1.5a2.387,2.387,0,0,0-3.263.874l-4.971,8.611a2.388,2.388,0,0,0,.873,3.262l2.586,1.493a18.042,18.042,0,0,0,0,3.932l-2.586,1.493A2.375,2.375,0,0,0,167.309,26.963Zm21.823-15.278a10.37,10.37,0,1,1-10.37,10.37A10.37,10.37,0,0,1,189.132,11.684Z" transform="translate(-114.17)" fill="#6e00ff"/>
    <path id="Path_7" data-name="Path 7" d="M281.507,166.076l-1.78-1.028a12.362,12.362,0,0,0,0-2.707l1.78-1.028a1.644,1.644,0,0,0,.6-2.246l-3.422-5.928a1.642,1.642,0,0,0-2.245-.6l-1.785,1.031a12.549,12.549,0,0,0-2.339-1.354v-2.058a1.646,1.646,0,0,0-1.644-1.644h-6.845a1.646,1.646,0,0,0-1.644,1.644v2.058a12.539,12.539,0,0,0-2.339,1.354l-1.786-1.031a1.642,1.642,0,0,0-2.245.6l-3.422,5.928a1.643,1.643,0,0,0,.6,2.246l1.78,1.028a12.362,12.362,0,0,0,0,2.707l-1.78,1.028a1.643,1.643,0,0,0-.6,2.245l3.422,5.928a1.642,1.642,0,0,0,2.245.6l1.786-1.031a12.556,12.556,0,0,0,2.339,1.354v2.058a1.644,1.644,0,0,0,1.644,1.644h6.845a1.646,1.646,0,0,0,1.644-1.644v-2.058a12.541,12.541,0,0,0,2.339-1.354l1.785,1.031a1.642,1.642,0,0,0,2.245-.6l3.422-5.928a1.643,1.643,0,0,0-.6-2.245Zm-14.257,4.757a7.138,7.138,0,1,1,7.138-7.138A7.138,7.138,0,0,1,267.25,170.833Z" transform="translate(-174.643 -105.729)" fill="#6e00ff"/>
  </g>
</svg>
